<svg xmlns="http://www.w3.org/2000/svg" version="1.1" xmlns:xlink="http://www.w3.org/1999/xlink" xmlns:svgjs="http://svgjs.dev/svgjs" viewBox="0 0 13.900446361596734 1.9920187460035976"><g transform="matrix(1,0,0,1,2.2320214412293122,0.4243540995642988)"><rect width="13.900446361596734" height="1.9920187460035976" x="-2.2320214412293122" y="-0.4243540995642988" fill="#ffffff"></rect><g><path d=" M 0.082763671875 0.032958984375 L 0.94189453125 0.032958984375 L 0.94189453125 0.41162109375 L 0.703857421875 0.41162109375 L 0.703857421875 0.255615234375 L 0.44091796875 0.255615234375 L 0.44091796875 0.4892578125 L 0.668701171875 0.4892578125 L 0.668701171875 0.702392578125 L 0.44091796875 0.702392578125 L 0.44091796875 0.942626953125 L 0.55810546875 0.942626953125 L 0.55810546875 1.143310546875 L 0.082763671875 1.143310546875 L 0.082763671875 0.942626953125 L 0.19775390625 0.942626953125 L 0.19775390625 0.255615234375 L 0.082763671875 0.255615234375 L 0.082763671875 0.032958984375 Z M 1.042236328125 0.032958984375 L 1.517578125 0.032958984375 L 1.517578125 0.233642578125 L 1.400390625 0.233642578125 L 1.400390625 0.942626953125 L 1.517578125 0.942626953125 L 1.517578125 1.143310546875 L 1.042236328125 1.143310546875 L 1.042236328125 0.942626953125 L 1.1572265625 0.942626953125 L 1.1572265625 0.233642578125 L 1.042236328125 0.233642578125 L 1.042236328125 0.032958984375 Z M 1.843505859375 0.942626953125 L 1.95849609375 0.942626953125 L 1.95849609375 0.22705078125 L 1.82373046875 0.22705078125 L 1.82373046875 0.37060546875 L 1.5849609375 0.37060546875 L 1.5849609375 0.032958984375 L 2.594970703125 0.032958984375 L 2.594970703125 0.37060546875 L 2.354736328125 0.37060546875 L 2.354736328125 0.22705078125 L 2.20166015625 0.22705078125 L 2.20166015625 0.942626953125 L 2.31884765625 0.942626953125 L 2.31884765625 1.143310546875 L 1.843505859375 1.143310546875 L 1.843505859375 0.942626953125 Z M 3.251953125 0.345703125 Q 3.248291015625 0.320068359375 3.2340087890625 0.29736328125 Q 3.2197265625 0.274658203125 3.1973876953125 0.2581787109375 Q 3.175048828125 0.24169921875 3.1468505859375 0.232177734375 Q 3.11865234375 0.22265625 3.087890625 0.22265625 Q 3.06005859375 0.22265625 3.035888671875 0.228515625 Q 3.01171875 0.234375 2.9937744140625 0.2464599609375 Q 2.975830078125 0.258544921875 2.9652099609375 0.277587890625 Q 2.95458984375 0.296630859375 2.95458984375 0.322998046875 Q 2.95458984375 0.35595703125 2.9688720703125 0.3753662109375 Q 2.983154296875 0.394775390625 3.0054931640625 0.4072265625 Q 3.02783203125 0.419677734375 3.054931640625 0.427001953125 Q 3.08203125 0.434326171875 3.107666015625 0.443115234375 L 3.30908203125 0.510498046875 Q 3.350830078125 0.525146484375 3.387451171875 0.55078125 Q 3.424072265625 0.576416015625 3.4508056640625 0.613037109375 Q 3.4775390625 0.649658203125 3.492919921875 0.697265625 Q 3.50830078125 0.744873046875 3.50830078125 0.80419921875 Q 3.50830078125 0.884765625 3.4786376953125 0.951416015625 Q 3.448974609375 1.01806640625 3.3955078125 1.065673828125 Q 3.342041015625 1.11328125 3.267333984375 1.1396484375 Q 3.192626953125 1.166015625 3.101806640625 1.166015625 Q 3.0380859375 1.166015625 2.9813232421875 1.1517333984375 Q 2.924560546875 1.137451171875 2.877685546875 1.1103515625 Q 2.830810546875 1.083251953125 2.795654296875 1.0455322265625 Q 2.760498046875 1.0078125 2.74072265625 0.960205078125 L 2.665283203125 0.960205078125 L 2.665283203125 0.73974609375 L 2.930419921875 0.73974609375 L 2.930419921875 0.78515625 Q 2.930419921875 0.818115234375 2.9410400390625 0.845947265625 Q 2.95166015625 0.873779296875 2.972900390625 0.894287109375 Q 2.994140625 0.914794921875 3.0263671875 0.9261474609375 Q 3.05859375 0.9375 3.101806640625 0.9375 Q 3.167724609375 0.9375 3.2021484375 0.9071044921875 Q 3.236572265625 0.876708984375 3.236572265625 0.822509765625 Q 3.236572265625 0.794677734375 3.2244873046875 0.7760009765625 Q 3.21240234375 0.75732421875 3.193359375 0.7445068359375 Q 3.17431640625 0.731689453125 3.15087890625 0.722900390625 Q 3.12744140625 0.714111328125 3.104736328125 0.706787109375 L 2.93701171875 0.652587890625 Q 2.889404296875 0.637939453125 2.8450927734375 0.611572265625 Q 2.80078125 0.585205078125 2.7667236328125 0.545654296875 Q 2.732666015625 0.506103515625 2.7125244140625 0.4530029296875 Q 2.6923828125 0.39990234375 2.6923828125 0.331787109375 Q 2.6923828125 0.252685546875 2.7216796875 0.1907958984375 Q 2.7509765625 0.12890625 2.8037109375 0.08642578125 Q 2.8564453125 0.0439453125 2.928955078125 0.02197265625 Q 3.00146484375 0 3.087890625 0 Q 3.156005859375 0 3.2138671875 0.0157470703125 Q 3.271728515625 0.031494140625 3.3175048828125 0.057861328125 Q 3.36328125 0.084228515625 3.3951416015625 0.1182861328125 Q 3.427001953125 0.15234375 3.44384765625 0.18896484375 L 3.51708984375 0.18896484375 L 3.51708984375 0.41015625 L 3.251953125 0.41015625 L 3.251953125 0.345703125 Z M 4.34912109375 0.032958984375 L 4.77099609375 0.032958984375 L 4.77099609375 0.234375 L 4.680908203125 0.234375 L 4.680908203125 1.143310546875 L 4.437744140625 1.143310546875 L 3.9755859375 0.425537109375 L 3.9755859375 0.942626953125 L 4.068603515625 0.942626953125 L 4.068603515625 1.143310546875 L 3.6474609375 1.143310546875 L 3.6474609375 0.942626953125 L 3.739013671875 0.942626953125 L 3.739013671875 0.234375 L 3.64892578125 0.234375 L 3.64892578125 0.032958984375 L 3.984375 0.032958984375 L 4.443603515625 0.76025390625 L 4.443603515625 0.234375 L 4.34912109375 0.234375 L 4.34912109375 0.032958984375 Z M 4.90869140625 0.032958984375 L 5.7919921875 0.032958984375 L 5.7919921875 0.41162109375 L 5.55322265625 0.41162109375 L 5.55322265625 0.254150390625 L 5.268310546875 0.254150390625 L 5.268310546875 0.47314453125 L 5.48876953125 0.47314453125 L 5.48876953125 0.685546875 L 5.268310546875 0.685546875 L 5.268310546875 0.942626953125 L 5.55322265625 0.942626953125 L 5.55322265625 0.74560546875 L 5.7919921875 0.74560546875 L 5.7919921875 1.143310546875 L 4.90869140625 1.143310546875 L 4.90869140625 0.942626953125 L 5.025146484375 0.942626953125 L 5.025146484375 0.254150390625 L 4.90869140625 0.254150390625 L 4.90869140625 0.032958984375 Z M 6.50830078125 0.942626953125 L 6.618896484375 0.942626953125 L 6.569091796875 0.782958984375 L 6.227783203125 0.782958984375 L 6.177978515625 0.942626953125 L 6.295166015625 0.942626953125 L 6.295166015625 1.143310546875 L 5.8740234375 1.143310546875 L 5.8740234375 0.942626953125 L 5.956787109375 0.942626953125 L 6.25927734375 0.032958984375 L 6.552978515625 0.032958984375 L 6.848876953125 0.942626953125 L 6.929443359375 0.942626953125 L 6.929443359375 1.143310546875 L 6.50830078125 1.143310546875 L 6.50830078125 0.942626953125 Z M 6.28564453125 0.595458984375 L 6.509765625 0.595458984375 L 6.39697265625 0.234375 L 6.28564453125 0.595458984375 Z M 7.046630859375 0.032958984375 L 7.52197265625 0.032958984375 L 7.52197265625 0.234375 L 7.40478515625 0.234375 L 7.40478515625 0.557373046875 L 7.760009765625 0.24755859375 L 7.760009765625 0.032958984375 L 8.138671875 0.032958984375 L 8.138671875 0.2490234375 L 8.055908203125 0.2490234375 L 7.68603515625 0.56689453125 L 8.04052734375 0.92578125 L 8.130615234375 0.92578125 L 8.130615234375 1.143310546875 L 7.76220703125 1.143310546875 L 7.76220703125 0.92578125 L 7.40478515625 0.568359375 L 7.40478515625 0.942626953125 L 7.52197265625 0.942626953125 L 7.52197265625 1.143310546875 L 7.046630859375 1.143310546875 L 7.046630859375 0.942626953125 L 7.16162109375 0.942626953125 L 7.16162109375 0.234375 L 7.046630859375 0.234375 L 7.046630859375 0.032958984375 Z M 8.2763671875 0.032958984375 L 9.15966796875 0.032958984375 L 9.15966796875 0.41162109375 L 8.9208984375 0.41162109375 L 8.9208984375 0.254150390625 L 8.635986328125 0.254150390625 L 8.635986328125 0.47314453125 L 8.8564453125 0.47314453125 L 8.8564453125 0.685546875 L 8.635986328125 0.685546875 L 8.635986328125 0.942626953125 L 8.9208984375 0.942626953125 L 8.9208984375 0.74560546875 L 9.15966796875 0.74560546875 L 9.15966796875 1.143310546875 L 8.2763671875 1.143310546875 L 8.2763671875 0.942626953125 L 8.392822265625 0.942626953125 L 8.392822265625 0.254150390625 L 8.2763671875 0.254150390625 L 8.2763671875 0.032958984375 Z M 9.3046875 0.032958984375 L 9.89208984375 0.032958984375 Q 9.977783203125 0.032958984375 10.045166015625 0.05859375 Q 10.112548828125 0.084228515625 10.15869140625 0.1270751953125 Q 10.204833984375 0.169921875 10.2293701171875 0.2266845703125 Q 10.25390625 0.283447265625 10.25390625 0.344970703125 Q 10.25390625 0.4013671875 10.2418212890625 0.44384765625 Q 10.229736328125 0.486328125 10.2066650390625 0.519287109375 Q 10.18359375 0.55224609375 10.14990234375 0.5775146484375 Q 10.1162109375 0.602783203125 10.072998046875 0.623291015625 Q 10.1103515625 0.642333984375 10.138916015625 0.6815185546875 Q 10.16748046875 0.720703125 10.18212890625 0.782958984375 L 10.219482421875 0.92724609375 L 10.31103515625 0.92724609375 L 10.3125 1.143310546875 L 9.990234375 1.143310546875 L 9.9462890625 0.879638671875 Q 9.939697265625 0.832763671875 9.9261474609375 0.7987060546875 Q 9.91259765625 0.7646484375 9.889892578125 0.7430419921875 Q 9.8671875 0.721435546875 9.8345947265625 0.711181640625 Q 9.802001953125 0.700927734375 9.75732421875 0.700927734375 L 9.662841796875 0.700927734375 L 9.662841796875 0.942626953125 L 9.7646484375 0.942626953125 L 9.7646484375 1.143310546875 L 9.3046875 1.143310546875 L 9.3046875 0.942626953125 L 9.419677734375 0.942626953125 L 9.419677734375 0.234375 L 9.3046875 0.234375 L 9.3046875 0.032958984375 Z M 9.662841796875 0.234375 L 9.662841796875 0.503173828125 L 9.80859375 0.503173828125 Q 9.850341796875 0.503173828125 9.8836669921875 0.4954833984375 Q 9.9169921875 0.48779296875 9.9407958984375 0.4713134765625 Q 9.964599609375 0.454833984375 9.9774169921875 0.429931640625 Q 9.990234375 0.405029296875 9.990234375 0.37060546875 Q 9.990234375 0.30615234375 9.944091796875 0.270263671875 Q 9.89794921875 0.234375 9.80859375 0.234375 L 9.662841796875 0.234375 Z M 10.976806640625 0.345703125 Q 10.97314453125 0.320068359375 10.9588623046875 0.29736328125 Q 10.944580078125 0.274658203125 10.9222412109375 0.2581787109375 Q 10.89990234375 0.24169921875 10.8717041015625 0.232177734375 Q 10.843505859375 0.22265625 10.812744140625 0.22265625 Q 10.784912109375 0.22265625 10.7607421875 0.228515625 Q 10.736572265625 0.234375 10.7186279296875 0.2464599609375 Q 10.70068359375 0.258544921875 10.6900634765625 0.277587890625 Q 10.679443359375 0.296630859375 10.679443359375 0.322998046875 Q 10.679443359375 0.35595703125 10.6937255859375 0.3753662109375 Q 10.7080078125 0.394775390625 10.7303466796875 0.4072265625 Q 10.752685546875 0.419677734375 10.77978515625 0.427001953125 Q 10.806884765625 0.434326171875 10.83251953125 0.443115234375 L 11.033935546875 0.510498046875 Q 11.07568359375 0.525146484375 11.1123046875 0.55078125 Q 11.14892578125 0.576416015625 11.1756591796875 0.613037109375 Q 11.202392578125 0.649658203125 11.2177734375 0.697265625 Q 11.233154296875 0.744873046875 11.233154296875 0.80419921875 Q 11.233154296875 0.884765625 11.2034912109375 0.951416015625 Q 11.173828125 1.01806640625 11.120361328125 1.065673828125 Q 11.06689453125 1.11328125 10.9921875 1.1396484375 Q 10.91748046875 1.166015625 10.82666015625 1.166015625 Q 10.762939453125 1.166015625 10.7061767578125 1.1517333984375 Q 10.6494140625 1.137451171875 10.6025390625 1.1103515625 Q 10.5556640625 1.083251953125 10.5205078125 1.0455322265625 Q 10.4853515625 1.0078125 10.465576171875 0.960205078125 L 10.39013671875 0.960205078125 L 10.39013671875 0.73974609375 L 10.6552734375 0.73974609375 L 10.6552734375 0.78515625 Q 10.6552734375 0.818115234375 10.6658935546875 0.845947265625 Q 10.676513671875 0.873779296875 10.69775390625 0.894287109375 Q 10.718994140625 0.914794921875 10.751220703125 0.9261474609375 Q 10.783447265625 0.9375 10.82666015625 0.9375 Q 10.892578125 0.9375 10.927001953125 0.9071044921875 Q 10.96142578125 0.876708984375 10.96142578125 0.822509765625 Q 10.96142578125 0.794677734375 10.9493408203125 0.7760009765625 Q 10.937255859375 0.75732421875 10.918212890625 0.7445068359375 Q 10.899169921875 0.731689453125 10.875732421875 0.722900390625 Q 10.852294921875 0.714111328125 10.82958984375 0.706787109375 L 10.661865234375 0.652587890625 Q 10.6142578125 0.637939453125 10.5699462890625 0.611572265625 Q 10.525634765625 0.585205078125 10.4915771484375 0.545654296875 Q 10.45751953125 0.506103515625 10.4373779296875 0.4530029296875 Q 10.417236328125 0.39990234375 10.417236328125 0.331787109375 Q 10.417236328125 0.252685546875 10.446533203125 0.1907958984375 Q 10.475830078125 0.12890625 10.528564453125 0.08642578125 Q 10.581298828125 0.0439453125 10.65380859375 0.02197265625 Q 10.726318359375 0 10.812744140625 0 Q 10.880859375 0 10.938720703125 0.0157470703125 Q 10.99658203125 0.031494140625 11.0423583984375 0.057861328125 Q 11.088134765625 0.084228515625 11.1199951171875 0.1182861328125 Q 11.15185546875 0.15234375 11.168701171875 0.18896484375 L 11.241943359375 0.18896484375 L 11.241943359375 0.41015625 L 10.976806640625 0.41015625 L 10.976806640625 0.345703125 Z" fill="#000000" fill-rule="nonzero"></path></g><g></g><g clip-path="url(&quot;#SvgjsClipPath1003&quot;)"><g clip-path="url(&quot;#SvgjsClipPath1000&quot;)"><path d=" M -0.5213776186322461 0.5716552734375 C -0.5213776186322461 0.9027815514062867 -0.789808449547837 1.1712123823218774 -1.1209347275166237 1.1712123823218774 C -1.4520610054854104 1.1712123823218774 -1.7204918364010011 0.9027815514062867 -1.7204918364010011 0.5716552734375 C -1.7204918364010011 0.24052899546871342 -1.4520610054854104 -0.02790183544687741 -1.1209347275166237 -0.02790183544687741 C -0.789808449547837 -0.02790183544687741 -0.5213776186322461 0.24052899546871342 -0.5213776186322461 0.5716552734375 Z" fill="#51a8db" transform="matrix(1,0,0,1,0,0)" fill-rule="nonzero"></path></g><g clip-path="url(&quot;#SvgjsClipPath1000&quot;)"><path d=" M -1.01718833084631 0.9340987265330088 C -1.147477122638179 0.9340987265330088 -1.232571829795917 0.9154231464757698 -1.2853631076331566 0.8964711186874202 C -1.3124549852819807 0.8867476670092269 -1.3441577380509302 0.8717717084399349 -1.3748161327245745 0.8572906254386803 C -1.4083857609122568 0.8414341296517773 -1.4455628613441847 0.8238745793238359 -1.4711291570694724 0.8161954756818789 C -1.4841495039112798 0.8272704496010569 -1.4964565473481217 0.8362532943946703 -1.503859203258969 0.841451194326537 C -1.5289545139608844 0.8590209834593345 -1.5398144729780874 0.8640994306678821 -1.552264859682914 0.8640994306678821 C -1.55613512791846 0.8640994306678821 -1.5570429686156866 0.8640994306678821 -1.5889266069370924 0.8586080183301449 C -1.6086294804148782 0.8551950833781641 -1.632250403217537 0.8510210639318915 -1.653734828740257 0.8471166663468255 C -1.7507202012706957 0.8294820314499404 -1.765378756889454 0.824901872744382 -1.77019782104165 0.8233967684305586 C -1.8062315882646636 0.8121340830890218 -1.8280300038029655 0.7968782638536674 -1.8328183515405942 0.7522097712021423 C -1.8342176548709055 0.7391689467506235 -1.835302968185637 0.7142476957312596 -1.8355282218924664 0.6901967431246504 C -1.8359650775663208 0.6429753751290436 -1.8330231276377127 0.6333747891091215 -1.8288183917768726 0.6249687303223928 C -1.8280402426078206 0.6234090190493374 -1.8272313770242015 0.6219687604996016 -1.8264293373104867 0.620644541738233 C -1.8312381626578276 0.5879486248982566 -1.827060730276603 0.5103692005047802 -1.823664859999382 0.4825094124917606 C -1.8190915271637278 0.44503197378405907 -1.7932385449024737 0.35080425269482013 -1.7783171932924133 0.3172243857022807 C -1.776341103955216 0.3127875702647056 -1.7742523877646053 0.30859307320872115 -1.772098825809904 0.30474328258288674 L -1.7720544576555288 0.30465113333918326 L -1.7714879104534997 0.30366479513806083 C -1.7583139815388524 0.28066161356171 -1.7430547493685462 0.2713306494029944 -1.7305907109239127 0.2679006497762536 C -1.7127237772730908 0.25928195156734707 -1.6928896410632726 0.2555591498002766 -1.6731134733976016 0.2571123623930422 C -1.6520556647438818 0.2583888000650831 -1.6244108916328373 0.2684057641491468 -1.5813806077582615 0.284757135504087 C -1.5627937640097744 0.2918184979197353 -1.5435721143602181 0.29911876578202234 -1.5318930509545399 0.3022791435475566 L -1.5308282152495218 0.30256924301847493 L -1.529783857154216 0.302910536513673 C -1.5020535078859547 0.3114864826702632 -1.4735260347661556 0.3172324563926852 -1.4446379559721985 0.32006053464737677 C -1.4366960563389388 0.3207431216377729 -1.4285971616978896 0.3215656389612003 -1.4203549237888557 0.32253491248756283 C -1.4067919202896833 0.3002859895355997 -1.388590738190771 0.2733374551547591 -1.36522578550951 0.25289056185744185 C -1.3463386034852478 0.23636171788499866 -1.330123749528387 0.22418095304137903 -1.3123901395178934 0.21845063525700328 C -1.289984221558139 0.21120838728889996 -1.2683325622227732 0.21514008835358187 -1.2480358380633427 0.23014335040248962 C -1.2418584258002567 0.23470985736823996 -1.223141890523595 0.241832652613024 -1.2066301112259108 0.24811927879457268 C -1.1886848992483963 0.25494514869853435 -1.168347219869541 0.26268909810457886 -1.1477740479790015 0.2725797835954193 C -1.1015731475340373 0.2947911642629106 -1.0224476636073132 0.3501114268995679 -0.9913660649996233 0.37342177262159704 C -0.9406532645481405 0.4114589326614235 -0.9266841217896818 0.43682727815949707 -0.9219879232957572 0.45345851018049965 C -0.9204725801770779 0.45433904739811076 -0.9186944410670954 0.45532538559923313 -0.9172098143629834 0.4561513158576125 C -0.9136091679886442 0.4581512957394733 -0.9095272977860744 0.46041407161263653 -0.9049744425601323 0.4632331558829727 C -0.8829985544043286 0.4768371146015683 -0.803845766997989 0.5230823832009086 -0.7078979266929506 0.5470070572142944 C -0.5920799790974807 0.5758907257129081 -0.524585777487109 0.5932352611388747 -0.48427901570421317 0.613839149443983 C -0.4636580627243465 0.6243782925756999 -0.449862979648439 0.635937903258059 -0.4408664831150173 0.6502176230971467 C -0.4340349072399652 0.6614657969184332 -0.430009307683731 0.6741922634422411 -0.4291293998151551 0.6873230518950824 C -0.42894851426270186 0.6889953900215531 -0.42874032523063077 0.6908929818548544 -0.4285696784830315 0.6917120862433298 C -0.427265826723948 0.6983531331463796 -0.42634621918373883 0.705063875159137 -0.4258154399767822 0.7118108601755451 C -0.41619096341219675 0.7191145409727839 -0.4073855912360864 0.7307901914435104 -0.40243342262076287 0.750639821124231 C -0.398133999224938 0.766389826951546 -0.3994678346367424 0.7831466624145966 -0.40620471574270045 0.798018184127629 C -0.4127818089806212 0.8116690561099339 -0.42379459347281623 0.8226854501676796 -0.43744330935818176 0.8292670165479656 C -0.4436787415154506 0.8323830261591241 -0.4781425586605528 0.848925521871375 -0.5445548598911467 0.8684714003413696 C -0.626806592233885 0.8926793479557695 -0.7213687809484182 0.9108873559245874 -0.8256271178615293 0.9225868969399776 C -0.8892170406938982 0.9299841162663072 -0.9531701810506744 0.9338273663807496 -1.017188330846308 0.9340987265330088 Z M -1.4970265074851026 0.7307526491590388 L -1.4781359125258886 0.7329574051380184 C -1.4414127324425747 0.7372406385027542 -1.392447354686506 0.7603700986723285 -1.3405946339610604 0.7848579069527909 C -1.3116597714381673 0.7985096467607142 -1.2817351577791987 0.8126596750716268 -1.2582917075940436 0.8210759726632115 C -1.2032478926884966 0.8408368660351806 -1.0750171006726728 0.8699526141105292 -0.8345417039561032 0.8429631245102646 C -0.6418985905915449 0.8213387686545139 -0.5305618265880263 0.7818169819105759 -0.49036769165854777 0.7652028145643333 C -0.49640795957874895 0.7583335644139365 -0.5005926325380234 0.7500347070910001 -0.5025245659575026 0.7410938420635407 C -0.5039812047714893 0.7343126073929784 -0.5049540666260632 0.7274364243669179 -0.5054357994715424 0.7205172572380483 C -0.5058590034055879 0.7159473373373458 -0.5062992720143951 0.7112238353638043 -0.506937490850415 0.7081931491264454 C -0.5077491555632603 0.704150580639509 -0.5083529008068466 0.7000690349644716 -0.5087463463749649 0.6959646031934981 C -0.5088657990982834 0.6948588122690562 -0.5090159682361726 0.693479986548456 -0.5091558985692035 0.6924595189978138 C -0.5126890583424357 0.689549079452098 -0.5165724092228796 0.6870920316408219 -0.520715509251563 0.6851455993957188 C -0.5548175552917562 0.6677157405959527 -0.6309157659160725 0.6487398222629392 -0.7272629196104894 0.6247127602009942 C -0.8344734452570639 0.5979758277871763 -0.9226466197414893 0.5464746393617854 -0.9471173633471917 0.5313246211099425 C -0.9500490744709427 0.5295089397154886 -0.9529739597247903 0.5278843826783458 -0.9560694917262371 0.5261676763974995 C -0.9705539876624443 0.5181268016506326 -0.9923285126560812 0.5060313601808125 -0.9989359547231171 0.47591562216453365 C -1.000236282939821 0.47352656769814716 -1.0080211875652891 0.4610283999039933 -1.0394099503186576 0.4374859746052295 C -1.0704369419671151 0.4142165841026241 -1.1442518991085564 0.36312494787147104 -1.1824631188309342 0.34475653195991013 C -1.199985126874403 0.3363299955634695 -1.2186402293219303 0.32923109086334934 -1.2351042275302866 0.32296494229151246 C -1.2576569016929764 0.31438141088728067 -1.2773700139756174 0.30687636692787484 -1.2921002412283653 0.2970266366564582 C -1.2992512963807132 0.30192756369233525 -1.3060568192255229 0.3073145090540782 -1.3124686370217864 0.3131493413696158 C -1.3322636597432764 0.3304699862509184 -1.34960478223429 0.3600123511952645 -1.3610790695428499 0.37955822966525876 C -1.3624442435236421 0.3818881265924777 -1.3637434340953623 0.3840940202164413 -1.3649766412580104 0.38617591053714967 L -1.378737594984398 0.40936339060090743 L -1.4053994428292724 0.40533954029252206 C -1.4211774411122797 0.40295048582613546 -1.4366721657942727 0.40111091388701775 -1.4514501741363495 0.3998481279547849 C -1.4861823908397978 0.39653481474576224 -1.5204805163392274 0.3896497997233684 -1.5538006804113014 0.3793022595438604 C -1.569158887695216 0.37505315552864416 -1.588930019872042 0.3675481115692383 -1.609824007648068 0.35961303780588283 C -1.6299603238647553 0.35196123764354176 -1.6674616531171202 0.33771906008892577 -1.6779564280944628 0.33705012483833746 C -1.6834323936140967 0.3364745158868589 -1.6889669052398437 0.3371995100148881 -1.6941098492221878 0.33916614450856564 L -1.7035261367547032 0.3463674372572452 C -1.7040517287373078 0.34742089651242325 -1.7045795960098817 0.3485437521116249 -1.7051097385724225 0.3497360040548503 C -1.7168297571975253 0.3760975136239503 -1.7405394163089354 0.46263247933142443 -1.7441434756182264 0.4921850830806265 C -1.7484164701781064 0.5272154474277577 -1.7497133854598597 0.5958256787674284 -1.7471605101157779 0.6090883439908261 C -1.7427748887024834 0.6301427397095959 -1.7451127491445897 0.6455487280828374 -1.7550102605053346 0.6590946669072493 C -1.7559512743893368 0.6872921552324787 -1.7553382927663053 0.715520072910186 -1.753174101501169 0.7436501303425733 C -1.7531331462817445 0.7439914238377726 -1.7530956039972727 0.7443327173329707 -1.753058061712801 0.7446740108281689 C -1.7514027882610899 0.7452746873797174 -1.7492082710869663 0.7460187071992493 -1.7463072763777825 0.7469265478964762 C -1.7276624127351103 0.7527524278595075 -1.6004043071806018 0.7754928134445558 -1.5594866300413037 0.7823664644378453 C -1.5420976823033525 0.7710731873837315 -1.5257631407759085 0.7582340092880352 -1.5106816602279771 0.7440050755775806 Z M -1.547722243261825 0.7842469915963864 L -1.547722243261825 0.7842469915963864 Z M -1.8250982926792114 0.6282212573316305 L -1.8250982926792114 0.6282212573316305 Z M -1.296636031779547 0.29386284595597184" fill="#dddee0" transform="matrix(1,0,0,1,0,0)" fill-rule="nonzero"></path></g><g clip-path="url(&quot;#SvgjsClipPath1000&quot;)"><path d=" M -1.5423400448425524 0.3409203930738836 C -1.5116439834142361 0.3504943592048527 -1.4800407261233195 0.3568705954308535 -1.4480338262494192 0.35994750543117676 C -1.417741636958633 0.3625695146829292 -1.3876320001783022 0.36698908968043575 -1.3578640848180823 0.37318286717495874 L -1.4902245281258046 0.4745197317691734 L -1.6713899412468525 0.40129521237442467 L -1.7367271679675733 0.3235417282983973 L -1.7168877770917081 0.30616306352291084 C -1.7168877770917081 0.30616306352291084 -1.702823072154595 0.2954089054892192 -1.6755264184086525 0.2970607660059779 C -1.6482297646627089 0.29871262652273667 -1.57665710578472 0.3316337970695438 -1.5423400448425524 0.3409203930738836 Z" fill="#3361e1" transform="matrix(1,0,0,1,0,0)" fill-rule="nonzero"></path></g><g clip-path="url(&quot;#SvgjsClipPath1000&quot;)"><path d=" M -1.7168877770917081 0.3061767152627187 C -1.7168877770917081 0.3061767152627187 -1.7119253696715275 0.3285109615884813 -1.6771816918603626 0.35829223197946614 C -1.6424380140491988 0.38807350237045085 -1.6068752318495585 0.4236431104399952 -1.5274494096470603 0.42777958760179596 C -1.4480235874445622 0.4319160647635967 -1.4182525558584342 0.39386525298396236 -1.4066724675663624 0.3773193443367593 C -1.3950923792742917 0.3607734356895562 -1.3719287897551986 0.31196505294127824 -1.3388369724607911 0.28301312574362475 C -1.3057451551663837 0.25406119854597137 -1.2908579329058445 0.24826944793245986 -1.2718308205485522 0.26233073993462086 C -1.252803708191259 0.2763920319367819 -1.2081318026047811 0.28797553316380486 -1.1651151704700151 0.30865791897280875 C -1.122098538335249 0.32934030478181264 -1.045164158647696 0.3831110949502707 -1.0153863011916635 0.40544534127603327 C -0.9856084437356312 0.4277795876017958 -0.963267371539963 0.4501172468625104 -0.9599602375714954 0.46665974257476156 C -0.9566531036030268 0.4832022382870128 -0.9434143289242922 0.48651619812538616 -0.9260424900187093 0.4972703561590778 C -0.9086706511131263 0.5080245141927692 -0.8234633171019732 0.5594437921793127 -0.7175770102167673 0.5858496699027884 C -0.6116907033315624 0.6122555476262642 -0.5397187310641911 0.630456729725178 -0.5024938495429343 0.6494804291475192 C -0.4652689680216795 0.6685041285698603 -0.47105730570024007 0.6842275198936361 -0.46775017173177047 0.6999440853475078 C -0.46444303776330087 0.7156606508013794 -0.46609489828006034 0.7371689668687629 -0.45865128714978964 0.7396501705788529 C -0.45120767601951894 0.7421313742889427 -0.4454159254060077 0.7437866477406535 -0.4412794482442066 0.7603325563878568 C -0.4371429710824055 0.7768784650350599 -0.4437606519542956 0.7876360360037035 -0.45534074024636717 0.7934380254220708 C -0.46692082853843897 0.7992400148404382 -0.5868718403607582 0.8554817699141303 -0.8300809979738639 0.8827818365950251 C -1.0732901555869698 0.9100819032759199 -1.2073058723464003 0.8819559063366457 -1.2718308205485522 0.8587923168175517 C -1.3363557687507033 0.835628727298458 -1.4331431910539252 0.7785473902265783 -1.4827775040605833 0.7727590525480189 C -1.510903500999857 0.8000625321638656 -1.5489577257144442 0.8240486390063869 -1.552264859682914 0.8240486390063869 C -1.5555719936513837 0.8240486390063869 -1.7317852381571057 0.7934380254220708 -1.758249135774764 0.7851650710984691 C -1.7847130333924235 0.7768921167748677 -1.7905116098758391 0.7711037790963081 -1.792992813585929 0.7479401895772141 C -1.7954740172960189 0.7247766000581202 -1.797129290747729 0.6511527672739896 -1.792992813585929 0.642879812950388 C -1.788856336424128 0.6346068586267865 -1.782238655552238 0.6370778235320207 -1.786375132714038 0.617235019721204 C -1.7905116098758391 0.5973922159103874 -1.7880304061657493 0.5212769406113108 -1.783893929003949 0.48735919305852515 C -1.7797574518421482 0.45344144550573956 -1.7549420018062944 0.36327170407440595 -1.7417032271275619 0.33349043368342113 C -1.7284644524488282 0.30370916329243636 -1.7168877770917081 0.3061767152627187 -1.7168877770917081 0.3061767152627187 Z" fill="#000000" transform="matrix(1,0,0,1,0,0)" fill-rule="nonzero"></path></g><g clip-path="url(&quot;#SvgjsClipPath1000&quot;)"><path d=" M -1.7886515603270094 0.6246649791116666 C -1.7886515603270094 0.6246649791116666 -1.7886515603270094 0.6532039411801303 -1.7656961598399854 0.6618898606329217 C -1.7427407593529622 0.6705757800857128 -1.6378851588232555 0.6947734888952569 -1.5832884383964188 0.7047017166705691 C -1.5286917179695811 0.7146299444458816 -1.4288019377950059 0.7320051962864159 -1.3673759345292544 0.7630219491300176 C -1.3059499312635041 0.7940387019736196 -1.2240565570907238 0.830649255203518 -1.1223067273673193 0.8374717121725277 C -1.0205568976439143 0.8442941691415375 -0.8350468183289954 0.8349905084624376 -0.7308123719605502 0.8176186695568551 C -0.6265779255921038 0.8002468306512727 -0.5202786535777086 0.7752231915833492 -0.4894632638962728 0.757438387548577 C -0.458647874214839 0.7396535835138048 -0.4572042027301506 0.7251759134475021 -0.4572042027301506 0.7251759134475021 L -0.43734774717952396 0.7413054440305635 C -0.43734774717952396 0.7413054440305635 -0.46278776431159074 0.7667420482276768 -0.49691028796149417 0.7754347935503719 C -0.5310328116113996 0.7841275388730672 -0.7047580265371274 0.835618488493602 -0.8884046433682641 0.8480279199790043 C -1.0720512601994 0.8604373514644065 -1.1967564904098287 0.8505091236890941 -1.2736908700973797 0.8188678037492799 C -1.3506252497849318 0.7872264838094656 -1.4095666364056407 0.7562029050959599 -1.4610609989611283 0.7450357819330785 C -1.5125553615166156 0.7338686587701971 -1.7110926135432454 0.692920265216331 -1.7396349885466602 0.6873367036348905 C -1.7681773635500753 0.6817531420534498 -1.7929894006509761 0.6662413526966968 -1.8022964742650291 0.6364600823057122 C -1.811603547879082 0.6066788119147273 -1.7886515603270094 0.6246649791116666 -1.7886515603270094 0.6246649791116666 Z" fill="#dddee0" transform="matrix(1,0,0,1,0,0)" fill-rule="nonzero"></path></g><g clip-path="url(&quot;#SvgjsClipPath1000&quot;)"><path d=" M -1.1049348884617372 0.457147892863591 C -1.112078452088932 0.46181623383763576 -1.1208117172732566 0.4633830481274045 -1.129132597271282 0.4614891461225106 C -1.1434020783055137 0.45839020118611207 -1.117962061173448 0.4416361035068381 -1.1049348884617372 0.4310901345052172 C -1.0919077157500263 0.4205441655035964 -1.0714301060381413 0.4013088641142325 -1.0466146560022889 0.39386525298396224 C -1.0217992059664351 0.3864216418536921 -1.007526311997252 0.39386525298396224 -1.007526311997252 0.39386525298396224 L -0.9963591888343705 0.4112336789545928 L -1.0067379240233447 0.41210056443239584 C -1.0067379240233447 0.41210056443239584 -1.0137310277399534 0.39944881456540293 -1.042891143969677 0.4099947835670238 C -1.0720512601994017 0.42054075256864454 -1.0928804022113403 0.4524892366541372 -1.1049348884617372 0.457147892863591 Z" fill="#dddee0" transform="matrix(1,0,0,1,0,0)" fill-rule="nonzero"></path></g><g clip-path="url(&quot;#SvgjsClipPath1000&quot;)"><path d=" M -1.1917940829896487 0.36697815143225737 C -1.1989377421825582 0.3716461780145199 -1.2076704143130585 0.3732141175945096 -1.2159917917991938 0.37132281762612895 C -1.2302612728334255 0.36822045975477835 -1.2048246686363124 0.3514663620755044 -1.1917940829896487 0.3409203930738836 C -1.1787634973429855 0.33037442407226286 -1.1582927135010057 0.31113912268289884 -1.1334738505302004 0.30369551155262864 C -1.1086549875593943 0.29625190042235844 -1.0943855065251635 0.30369551155262864 -1.0943855065251635 0.30369551155262864 L -1.0832183833622822 0.3210673504582111 L -1.0935971185512565 0.3219308230010623 C -1.0935971185512565 0.3219308230010623 -1.100590222267865 0.3092790731340693 -1.1297503384975887 0.3198250421356901 C -1.1589104547273135 0.3303710111373108 -1.179739596739252 0.36230243054804356 -1.1917940829896487 0.36697815143225737 Z" fill="#dddee0" transform="matrix(1,0,0,1,0,0)" fill-rule="nonzero"></path></g><g clip-path="url(&quot;#SvgjsClipPath1000&quot;)"><path d=" M -1.1713198862127157 0.414946952182348 C -1.1713198862127157 0.414946952182348 -1.181248113988028 0.40998454476216784 -1.1713198862127157 0.4025409336318977 C -1.1613916584374024 0.39509732250162743 -1.1252793937104946 0.3766026279968433 -1.1080372463330863 0.36469148501443016 C -1.0972993326314135 0.357397809800235 -1.0853117088955515 0.352140932531778 -1.0726724143606612 0.34918310859262924 L -1.064853380385673 0.3640737437881217 C -1.0739630639498863 0.3655583363891913 -1.08259388277666 0.3691715636178499 -1.090044253266242 0.3746197127897425 C -1.1012113764291236 0.38330563224253367 -1.14215976998299 0.4106056989234284 -1.15022453527452 0.414946952182348 C -1.1582893005660502 0.4192882054412676 -1.1638762750824458 0.42302536921368666 -1.1713198862127157 0.414946952182348 Z" fill="#dddee0" transform="matrix(1,0,0,1,0,0)" fill-rule="nonzero"></path></g><g clip-path="url(&quot;#SvgjsClipPath1000&quot;)"><path d=" M -1.2190770849957846 0.2969037709981868 C -1.2190770849957846 0.2969037709981868 -1.2376912322238884 0.30824495384361905 -1.2426536396440682 0.31444966958632026 C -1.247616047064247 0.32065438532902146 -1.256305379451991 0.3324392497182113 -1.2637489905822616 0.32995804600812123 C -1.2711926017125315 0.32747684229803115 -1.2668513484536121 0.31568856497388936 -1.2587831702271293 0.30700264552109807 C -1.2507149920006464 0.2983167260683069 -1.2240394924159652 0.284047245034075 -1.212872369253083 0.2821871954852454 C -1.202556725847272 0.281182367308263 -1.1921678468803398 0.281182367308263 -1.181852203474529 0.2821871954852454 L -1.181852203474529 0.2908731149380367 C -1.181852203474529 0.2908731149380367 -1.2092000512447507 0.2904772144836069 -1.2190770849957846 0.2969037709981868 Z" fill="#dddee0" transform="matrix(1,0,0,1,0,0)" fill-rule="nonzero"></path></g><g clip-path="url(&quot;#SvgjsClipPath1000&quot;)"><path d=" M -1.7266078158349494 0.30141908393965744 C -1.7266078158349494 0.30141908393965744 -1.7290890195450395 0.3113814410644895 -1.7079936686068458 0.3377327118287335 C -1.686898317668652 0.3640839825929776 -1.6354039551131656 0.4105442660942927 -1.5894931541391184 0.4264007618811957 C -1.543582353165072 0.4422572576680987 -1.4821563498993218 0.43908322816275647 -1.4529962336695972 0.4264007618811957 C -1.4238361174398713 0.41371829559963486 -1.382887723886007 0.3678040816906367 -1.3779116647260183 0.3560158043664949 C -1.3671380776795812 0.3305393570835641 -1.3540539907231228 0.3061030853644841 -1.3388233207209814 0.2830131257436242 C -1.3195914322665687 0.2548871288043507 -1.3326186049782798 0.24930356722291008 -1.3326186049782798 0.24930356722291008 L -1.3915599915989885 0.3302959265683673 C -1.3915599915989885 0.3302959265683673 -1.4145153920860127 0.3791793938855889 -1.4337506934753759 0.390554706080541 C -1.45298599486474 0.40193001827549313 -1.4951835226110317 0.42384447360216204 -1.538602881070132 0.4197114093753133 C -1.5820222395292332 0.4155783451484646 -1.634147995050835 0.3808346673372996 -1.6540044506014606 0.3647017238192862 C -1.6738609061520862 0.3485687803012728 -1.711082374738388 0.3088626950699277 -1.7135635784484782 0.2933713833228867 C -1.716044782158568 0.27788007157584566 -1.7266078158349494 0.30141908393965744 -1.7266078158349494 0.30141908393965744 Z" fill="#dddee0" transform="matrix(1,0,0,1,0,0)" fill-rule="nonzero"></path></g></g></g><defs><clipPath id="SvgjsClipPath1003"><path d=" M -1.835569177111891 -0.02790183544687741 h 1.435569177111891 v 1.1991142177687548 h -1.435569177111891 Z"></path></clipPath><clipPath id="SvgjsClipPath1000"><path d=" M -1.835569177111891 -0.02790183544687741 L -0.3999999999999999 -0.02790183544687741 L -0.3999999999999999 1.1712123823218774 L -1.835569177111891 1.1712123823218774 Z"></path></clipPath></defs></svg>